<svg width="51" height="33" viewBox="0 0 51 33" fill="none" xmlns="http://www.w3.org/2000/svg">
<path id="google" d="M46.3815 14.1162C46.3645 12.5511 46.3588 10.9745 46.3531 9.40363H41.7517C41.7346 10.9687 41.7232 12.5395 41.7118 14.1162C40.1629 14.122 38.6253 14.1336 37.0877 14.151V18.8403C38.6253 18.8577 40.1743 18.8693 41.7118 18.8867C41.7289 20.4518 41.7289 22.0226 41.7403 23.5877H46.3474C46.3531 22.0226 46.3645 20.4518 46.3759 18.8751C47.9248 18.8577 49.4624 18.8519 51 18.8345V14.1452C49.4681 14.1336 47.9191 14.1336 46.3815 14.1162ZM16.1993 14.1394C16.1936 16.0116 16.1993 17.8897 16.205 19.762C19.2916 19.8663 22.3838 19.8199 25.4704 19.8663C24.1093 26.8395 14.7984 29.1001 9.87244 24.5441C4.8041 20.5503 5.04328 11.7918 10.3109 8.08203C13.9954 5.09104 19.2289 5.82719 22.9134 8.41823C24.3599 7.05605 25.7153 5.59533 27.0194 4.08824C23.9556 1.60155 20.197 -0.172182 16.1993 0.013306C7.8508 -0.270722 0.179956 7.17198 0.0432816 15.6754C-0.492026 22.6254 3.99545 29.4363 10.328 31.894C16.6378 34.3691 24.7301 32.6824 28.762 26.9091C31.4214 23.2631 31.9966 18.5679 31.6834 14.1568C26.5182 14.1162 21.3588 14.122 16.1993 14.1394Z" fill="#7A7777"/>
</svg>
