<svg width="27" height="24" viewBox="0 0 27 24" fill="none" xmlns="http://www.w3.org/2000/svg">
<path id="Vector" d="M25.9407 19.5859C25.2635 18.2387 24.2806 17.015 23.0469 15.9829C21.8169 14.9479 20.3599 14.1226 18.7563 13.5528C18.742 13.5467 18.7276 13.5437 18.7133 13.5377C20.9501 12.1809 22.4042 9.97085 22.4042 7.47739C22.4042 3.34673 18.4188 0 13.5 0C8.58115 0 4.5958 3.34673 4.5958 7.47739C4.5958 9.97085 6.04992 12.1809 8.28674 13.5407C8.27238 13.5467 8.25801 13.5497 8.24365 13.5558C6.63515 14.1256 5.19181 14.9427 3.95312 15.9859C2.72057 17.0188 1.73786 18.2423 1.05926 19.5889C0.3926 20.9073 0.0330566 22.3207 8.97816e-05 23.7528C-0.000868515 23.7849 0.00585282 23.817 0.0198579 23.8469C0.033863 23.8769 0.0548684 23.9042 0.0816364 23.9272C0.108404 23.9503 0.140393 23.9686 0.175718 23.9811C0.211044 23.9936 0.24899 24 0.287322 24H2.44156C2.59954 24 2.7252 23.8945 2.7288 23.7648C2.8006 21.4372 3.91363 19.2573 5.88117 17.605C7.91692 15.8955 10.6205 14.9548 13.5 14.9548C16.3795 14.9548 19.0831 15.8955 21.1188 17.605C23.0864 19.2573 24.1994 21.4372 24.2712 23.7648C24.2748 23.8975 24.4005 24 24.5584 24H26.7127C26.751 24 26.789 23.9936 26.8243 23.9811C26.8596 23.9686 26.8916 23.9503 26.9184 23.9272C26.9451 23.9042 26.9661 23.8769 26.9801 23.8469C26.9941 23.817 27.0009 23.7849 26.9999 23.7528C26.964 22.3116 26.6086 20.9095 25.9407 19.5859ZM13.5 12.6633C11.852 12.6633 10.301 12.1236 9.13407 11.1437C7.96719 10.1638 7.32451 8.86131 7.32451 7.47739C7.32451 6.09347 7.96719 4.79095 9.13407 3.81106C10.301 2.83116 11.852 2.29146 13.5 2.29146C15.148 2.29146 16.699 2.83116 17.8659 3.81106C19.0328 4.79095 19.6755 6.09347 19.6755 7.47739C19.6755 8.86131 19.0328 10.1638 17.8659 11.1437C16.699 12.1236 15.148 12.6633 13.5 12.6633Z" fill="white"/>
</svg>
